<svg width="83" height="40" viewBox="0 0 83 40" fill="none" xmlns="http://www.w3.org/2000/svg">
  <path d="M45.049 1.139h5.016V0H33.55v1.139h5.014v37.714H33.55v1.14h16.514v-1.14h-5.016V1.139ZM30.585 11.761h-1.189S28.126.846 17.682.846c-9.664 0-10.34 9.08-10.34 16.481 0 11.805 1.24 21.46 10.903 21.46 10.382 0 12.091-10.886 12.091-10.886h1.13v11.26h-.754l-2.255-2.313a18.927 18.927 0 0 1-10.274 3.127C7.777 39.975 0 31.008 0 20.457 0 9.237 7.205 0 17.368 0c6.126 0 9.46 3.379 9.46 3.379L29.584.687h.814l.186 11.074Z" fill="#C01D19"></path>
  <path d="M65.997.367c-10.115 0-16.528 11.105-16.528 19.786 0 8.681 6.413 19.85 16.528 19.85 10.115 0 16.53-11.17 16.53-19.85 0-8.68-6.415-19.786-16.53-19.786Zm0 38.588c-9.938 0-9.396-9.685-9.396-18.802 0-9.117-.542-18.952 9.396-18.952s9.395 9.835 9.395 18.952.543 18.802-9.395 18.802Z" fill="#C01D19"></path>
</svg>