<?xml version="1.0" encoding="utf-8"?>
<!-- Generator: Adobe Illustrator 23.0.3, SVG Export Plug-In . SVG Version: 6.00 Build 0)  -->
<svg version="1.1" id="Layer_1" xmlns="http://www.w3.org/2000/svg" xmlns:xlink="http://www.w3.org/1999/xlink" x="0px" y="0px"
	 viewBox="0 0 250.18 77.95" style="enable-background:new 0 0 250.18 77.95;" xml:space="preserve">
<style type="text/css">
	.st0{fill:#FFFFFF;}
</style>
<g>
	<path class="st0" d="M18.18,16.73H8.8c-4.84,0-8.8,3.97-8.8,8.81v30.32v13.28c0,1.07,0.19,2.1,0.55,3.05
		c1.25,3.36,4.48,5.76,8.25,5.76h9.38c3.77,0,7.01-2.41,8.25-5.76c0.35-0.95,0.55-1.98,0.55-3.05v-2.41v-16.3v-1.81V25.54
		C26.99,20.7,23.02,16.73,18.18,16.73z M16.98,48.61v7.24v14.99c0,1.77-1.44,3.23-3.21,3.25h-0.04h-0.49
		c-1.79,0-3.25-1.46-3.25-3.25V55.86V23.83c0-1.78,1.46-3.24,3.24-3.24h0.49c1.79,0,3.25,1.46,3.25,3.25V48.61z"/>
	<path class="st0" d="M160.25,9.82c0.48,0.81,0.79,1.38,1.1,1.92c0.15,0.26,0.18,0.34,0.18,0.52v1.16c0,0.74-0.08,0.79-0.85,0.84
		v0.24h2.47v-0.24c-0.8-0.05-0.87-0.11-0.87-0.84v-1.18c0-0.23,0.03-0.32,0.14-0.55c0.42-0.77,0.71-1.27,1.11-1.91
		c0.34-0.53,0.44-0.62,1.04-0.69V8.84h-1.93v0.24c0.68,0.07,0.71,0.14,0.51,0.57c-0.24,0.53-0.72,1.39-1.04,1.96
		c-0.37-0.65-0.8-1.37-1.17-2.07c-0.17-0.29-0.18-0.39,0.43-0.47V8.84h-2.08v0.24C159.8,9.13,159.9,9.23,160.25,9.82z"/>
	<path class="st0" d="M159.96,13.13l-0.26-0.05c-0.13,0.4-0.3,0.68-0.44,0.85c-0.2,0.23-0.5,0.27-0.98,0.27
		c-0.37,0-0.66-0.02-0.84-0.11c-0.16-0.09-0.2-0.26-0.2-0.73V9.92c0-0.74,0.08-0.79,0.77-0.84V8.84h-2.28v0.24
		c0.71,0.05,0.77,0.1,0.77,0.84v3.48c0,0.74-0.07,0.8-0.8,0.85v0.24h3.95C159.72,14.23,159.91,13.4,159.96,13.13z"/>
	<path class="st0" d="M152.92,9.08c0.72,0.05,0.78,0.1,0.78,0.85v3.49c0,0.74-0.07,0.79-0.78,0.85v0.24h2.31v-0.24
		c-0.71-0.05-0.78-0.1-0.78-0.85V9.93c0-0.74,0.07-0.79,0.78-0.85V8.84h-2.31V9.08z"/>
	<path class="st0" d="M146.91,14.26v0.24h1.89v-0.24c-0.65-0.06-0.73-0.15-0.54-0.7c0.11-0.37,0.24-0.73,0.38-1.12h1.85
		c0.19,0.53,0.37,1,0.48,1.34c0.11,0.34,0.03,0.41-0.51,0.48v0.24h2.14v-0.24c-0.57-0.05-0.68-0.13-0.96-0.88
		c-0.56-1.52-1.14-3.17-1.68-4.67l-0.27,0.08l-1.8,4.58C147.58,14.13,147.46,14.18,146.91,14.26z M149.59,9.84h0.02l0.77,2.22h-1.6
		C149.04,11.35,149.32,10.59,149.59,9.84z"/>
	<path class="st0" d="M146.46,13.78c0.67-0.51,1.07-1.28,1.07-2.33c0-0.82-0.3-1.45-0.73-1.87c-0.54-0.52-1.36-0.74-2.47-0.74h-2.45
		v0.25c0.67,0.05,0.74,0.09,0.74,0.84v3.49c0,0.74-0.07,0.79-0.82,0.84v0.24h2.07C144.94,14.5,145.8,14.28,146.46,13.78z
		 M143.37,13.36V9.73c0-0.34,0.03-0.44,0.11-0.5c0.09-0.06,0.31-0.11,0.68-0.11c0.58,0,1.09,0.11,1.48,0.36
		c0.7,0.41,1.03,1.18,1.03,2.08c0,1.39-0.75,2.61-2.38,2.61C143.66,14.19,143.37,14.02,143.37,13.36z"/>
	<path class="st0" d="M105.67,10.28v1.92c0,0.8-0.03,1.22-0.05,1.49c-0.04,0.43-0.26,0.54-0.77,0.57v0.24h2.07v-0.24
		c-0.59-0.03-0.79-0.14-0.84-0.58c-0.03-0.25-0.05-0.67-0.05-1.47v-2.19h0.02l3.71,4.57h0.27v-3.51c0-0.81,0.02-1.2,0.05-1.46
		c0.03-0.38,0.24-0.5,0.73-0.52V8.84h-2.06v0.24c0.6,0.04,0.81,0.15,0.85,0.54c0.03,0.24,0.06,0.64,0.06,1.45v2.14h-0.03l-3.63-4.37
		h-1.29v0.24c0.41,0.04,0.6,0.1,0.78,0.32C105.65,9.61,105.67,9.65,105.67,10.28z"/>
	<path class="st0" d="M100.76,14.26c-0.65-0.06-0.73-0.15-0.54-0.7c0.11-0.37,0.24-0.73,0.38-1.12h1.86c0.19,0.53,0.37,1,0.48,1.34
		c0.11,0.34,0.04,0.41-0.51,0.48v0.24h2.14v-0.24c-0.57-0.05-0.68-0.13-0.96-0.88c-0.56-1.52-1.14-3.17-1.68-4.67l-0.27,0.08
		l-1.8,4.58c-0.3,0.77-0.43,0.82-0.98,0.9v0.24h1.89V14.26z M101.55,9.84h0.02l0.77,2.22h-1.6C101,11.35,101.28,10.59,101.55,9.84z"
		/>
	<path class="st0" d="M96.31,14.26v0.24h2.29v-0.24c-0.76-0.07-0.78-0.11-0.81-1.04l-0.09-3.15c-0.03-0.9,0.03-0.91,0.8-0.98V8.84
		h-1.48l-2.01,4.36l-1.99-4.36H91.6v0.24c0.79,0.08,0.84,0.11,0.76,1.25l-0.12,1.81c-0.07,0.91-0.12,1.29-0.16,1.59
		c-0.06,0.37-0.24,0.46-0.74,0.52v0.24h2.03v-0.24c-0.58-0.06-0.78-0.12-0.8-0.54c-0.01-0.35-0.01-0.73,0.03-1.45l0.13-2.48h0.02
		l1.95,4.65h0.17l2.13-4.78h0.03l0.03,3.55C97.06,14.14,97.02,14.19,96.31,14.26z"/>
	<path class="st0" d="M88.46,14.63c1.59,0,2.91-1.15,2.91-3.03c0-1.74-1.33-2.89-2.82-2.89c-1.83,0-2.93,1.46-2.93,3.02
		C85.63,13.4,86.89,14.63,88.46,14.63z M88.38,9.02c1.14,0,2.1,0.98,2.1,2.82c0,1.67-0.87,2.48-1.84,2.48
		c-1.23,0-2.13-1.19-2.13-2.83C86.52,9.86,87.41,9.02,88.38,9.02z"/>
	<polygon class="st0" points="123.01,18.63 122.99,18.66 123.01,18.64 122.99,18.68 123.01,18.7 123.01,18.71 123.03,18.72 
		123.05,18.69 123.05,18.67 123.03,18.64 	"/>
	<path class="st0" d="M129.56,11.3l0.23-0.28l0.04-0.14l0.27-0.41l-0.02-0.36l-0.09-0.08c-0.72-0.01-0.79-0.42-1.12-0.86l-0.18-0.21
		l-0.07-0.03l-0.11-0.18l-0.18-0.14l-0.02-0.12l-0.14-0.18l-0.11-0.02l-0.29-0.1h-0.23l-0.04-0.04l-0.11-0.06l-0.05,0.01l-0.04-0.04
		l-0.2-0.06v0.04l-0.2-0.05l-0.36-0.02l-0.25-0.08V7.84h-0.14l-0.54-0.2l-0.19-0.19l0.23,8.5c0.26-0.04,0.63-0.1,1.09-0.19
		l-0.02-0.07v-0.28l-0.11-0.14l0.02-0.16l0.02-0.21l0.18-0.38l0.07-0.43l0.16-0.12l-0.02-0.19l0.14-0.09l0.11-0.15v-0.01l0.04-0.02
		l0.07-0.08l0.11,0.01l0.02,0.02l-0.09,0.24l0.04,0.08l0.29,0.01l0.09-0.01v-0.04l0.05,0.03l0.16-0.33l0.2-0.25l0.09-0.21l0.07-0.05
		l0.02-0.23l0.18-0.21c0.18-0.23,0.43-0.38,0.65-0.56L129.56,11.3z"/>
	<path class="st0" d="M122.86,10.52l-0.05-1.8l-0.13,0.27h-0.07l-0.09,0.19c-0.01,0.5-0.11,0.61,0.22,1.13l0.07,0.04v0.1
		L122.86,10.52z"/>
	<path class="st0" d="M117.43,16.8L117.43,16.8c1.18-0.25,2.29-0.92,2.62-1.3l0.3-0.44c0,0,0-0.01,0-0.01l-0.02,0.01l-0.16,0.02
		l-0.18,0.09h-0.11l-0.2,0.1l-0.18,0.02c-0.36,0.12-0.77,0.27-1.12,0.39c-0.29,0.1-0.56,0.18-0.85,0.28l-0.16,0.03l-0.2,0.11v0.02
		l0.09,0.1l-0.02,0.11l0.09,0.19l0.04,0.03l-0.02,0.04L117.43,16.8z"/>
	<path class="st0" d="M122.83,12.23l-0.09,0.31l-0.09,0.22c-0.07,0.24-0.13,0.46-0.22,0.67l-0.02,0.15l-0.04,0.03l-0.05,0.23
		l-0.07,0.07l-0.02,0.21l-0.07,0.06l-0.07,0.27l-0.05,0.01c-0.12,0.42-0.31,0.92-0.62,1.64c-0.02,0.06-0.64,2-2.43,3.12
		c-0.12,0.08-0.25,0.12-0.37,0.18l0.03,0.12l0.04,0.09l0.04,0.01v0.14l0.11,0.2c0.22-0.01,0.38-0.1,0.56-0.16l0.45-0.02l0.27-0.17
		l0.25-0.04l0.14-0.11l0.2-0.03l0.11-0.06l0.14,0.03l0.41,0.03l0.09-0.01l0.23,0.09c0.25,0,0.58-0.13,0.72-0.33h0.04v-0.04l0.11-0.3
		l-0.09-0.19l0.14-0.23l0.09-0.05l0.18-0.3l0.14-0.06l0.02,0.01l0.05-0.04l-0.17-5.88L122.83,12.23z"/>
	<polygon class="st0" points="127.35,13.59 127.35,13.55 127.33,13.57 127.33,13.59 	"/>
	<polygon class="st0" points="127.33,7.87 127.35,7.85 127.35,7.85 	"/>
	<polygon class="st0" points="124.43,3.73 124.45,3.68 124.47,3.67 124.52,3.6 124.5,3.51 124.45,3.53 124.43,3.48 124.34,3.43 
		124.32,3.44 124.34,3.5 124.34,3.52 124.2,3.48 124.18,3.5 124.2,3.59 124.25,3.55 124.29,3.57 124.2,3.68 124.23,3.76 
		124.18,3.77 124.02,3.72 123.84,4.09 123.89,4.1 123.93,4.1 123.93,4.29 123.89,4.58 123.89,4.58 124.32,3.91 124.32,3.87 
		124.35,3.87 124.39,3.8 124.36,3.71 124.36,3.7 	"/>
	<polygon class="st0" points="128.59,13.24 128.55,13.23 128.48,13.37 128.39,13.46 128.34,13.62 128.21,13.68 128.1,13.81 
		128.12,14.06 128.21,14.1 128.39,13.94 128.39,13.88 128.46,13.8 128.48,13.66 128.68,13.55 128.61,13.39 	"/>
	<polygon class="st0" points="127.24,7.83 127.29,7.83 127.29,7.79 127.22,7.79 127.2,7.81 127.2,7.81 127.17,7.82 127.2,7.82 
		127.22,7.83 	"/>
	<path class="st0" d="M113.56,1.15c0.16,0.38,0.67,0.54,0.67,0.54s0.45,0.16,0.61,0.56l1.26,0.16l0.77-0.03c0,0,0.49,0.05,0.9,0.16
		l1.06,0.09c0,0,0.36,0.07,0.86-0.3l0.34-0.03l0.32-0.07l0.43-0.11l0.22-0.07l0.32-0.24l0.34-0.17c0,0,0.54-0.1,0.86-0.44
		c0,0,0.22-0.14,0.47-0.14c0.27,0,0.52-0.18,0.61-0.34c0,0,0.11-0.09,0.36-0.09l2.21,0.09c0,0,0.68,0.45,0.97,0.83l0.4,0.03
		l0.02,0.43l0.36,0.21l0.25,0.03l1.01,0.55c0,0,0.38,0.05,0.59-0.1l0.38-0.03c0,0,1.31,0.24,1.58,0.04c0.27-0.2,1.22-0.36,1.53-0.11
		c0.34,0.24,1.66,1.15,2.86,0.68c0,0,0.41-0.2,0.7,0c0.18,0.15,1.01,0.33,1.62,0.32V0h-25.93l-0.61,0.05
		C111.87,0.05,113.42,0.76,113.56,1.15z"/>
	<path class="st0" d="M120.22,5.32l-0.02-0.25l-0.18-0.21c-0.34-0.19-0.68-0.18-0.97-0.17L119,4.69c-0.41,0.02-1.42,0.11-1.55,0.15
		l-0.11,0.02c-0.16,0.03-0.43,0.09-0.63,0.35c-0.34,0.38-0.74,1.06-0.97,1.47l0.25-0.15l0.02-0.01c2.5-0.63,2.9-0.09,2.97,0.1
		L119,6.76c0,0-1.96,1.16-2.45,1.45c1.71-0.13,2.41-1,2.43-1.01c0-0.02,0.9-1.08,1.15-1.53L120.22,5.32z"/>
	<path class="st0" d="M131.74,15.99c0.13-0.21,0.69-1.15,0.83-1.56c0.14-0.47-0.01-0.62-0.27-0.82c-0.14-0.12-0.39-0.16-0.74-0.17
		c-0.1,0.01-0.15-0.05-0.18-0.12c-0.03-0.08-0.01-0.16,0.06-0.21c0.29-0.25,0.66-0.47,1-0.62c0.59-0.25,5.94-2.13,5.99-2.15
		l1.35-2.41c-0.37,0.17-3.78,1.3-4.46,1.53c-0.06,0.02-0.12,0.01-0.17-0.02c-0.34-0.22-1.48-1.01-1.95-1.65c0,0,0,0,0,0
		c-0.04-0.05-0.06-0.1-0.07-0.14c-0.01-0.05,0-0.11,0.03-0.15c0.03-0.04,0.08-0.07,0.13-0.08c0.04,0,0.32-0.02,0.51-0.03l0.14-0.01
		c1.42-0.09,2.04,0.12,2.15,0.17l0.93-1.96c-0.22-0.11-2.24-1.08-3.74-0.09c-0.23,0.14-0.45,0.35-0.56,0.55
		c-0.38,0.63-0.92,1.79-0.97,1.92l-0.02,0.07c-0.06,0.21-0.19,0.7,0.02,1.23c0.17,0.43,0.53,0.84,0.73,1.04
		c0.04,0.04,0.06,0.1,0.05,0.16c-0.01,0.06-0.04,0.11-0.09,0.14c-0.68,0.42-2.97,2.03-3.92,5.09c-0.02,0.07-0.07,0.12-0.14,0.13
		c-1.49,0.33-2.47,0.48-2.92,0.55c-0.05,0.01-0.11-0.01-0.15-0.04c-0.04-0.04-0.07-0.09-0.07-0.14l-0.33-12.5l-1.8,2.83l0.36,12.16
		c0.04,0,3.54-0.12,6.75-1.36C131.12,16.96,131.72,16.03,131.74,15.99z"/>
	<path class="st0" d="M113.02,17.26c0.26,1.19,1.48,2.09,3.02,2.21c0.28,0.02,1.71,0.1,2.75-0.57c1.67-1.05,2.25-2.85,2.27-2.93
		c0.87-2.01,0.83-2.29,0.7-3.5c-0.33-1.92-0.98-2.79-1.06-2.88c0,0,0,0,0,0c-0.11,0.18-0.68,1.12-0.99,1.89
		c-0.09,0.23-0.05,0.28-0.05,0.29c0.01,0.01,0.02,0.02,0.03,0.03c0.02,0.03,0.03,0.06,0.03,0.09c0.04,0.11,0.2,0.51,0.3,0.78
		c0.08,0.2,0.15,0.38,0.18,0.46c0.07,0.23,0.42,1.23,0.43,1.24c0,0,0,0.01,0,0.01c0.04,0.12,0.12,0.43,0.11,0.73
		c0,0.04-0.01,0.07-0.03,0.1l-0.35,0.51c-0.48,0.54-2.15,1.54-3.71,1.56c-0.89,0.02-1.63-0.27-2.19-0.86
		c-0.45-0.5-0.45-0.94-0.45-1.21c0.04-1.05,0.58-2.24,1.71-3.75c0.25-0.32,0.46-1.02,0.5-1.16c-0.53,0.53-1.77,2.03-2.36,3.28
		C113.24,14.88,112.82,15.89,113.02,17.26z"/>
	<path class="st0" d="M118.98,11.79c0,0-0.85-0.97-1.51-1.16c0,0-1.19,1.3-1.42,1.81l1.4,1.18L118.98,11.79z"/>
	<path class="st0" d="M131.25,6.46c0,0,0.11,0.08,0.23,0.3l0.11-0.02c0-0.03,0.27-0.41,0.25-0.66c0,0-0.14-0.24-0.38-0.44
		c0,0,0.38-0.83,0.25-1.48c-0.14-0.55-0.61-0.37-0.77-0.23l-0.56,0.6c0,0-0.43,0.67-0.18,1.06c0.18,0.31,0.59,0.55,0.72,0.62
		c0,0-0.29,0.97-1.91,2.48c0,0,0.36,0.14,1.24-0.76C130.96,7.23,131.25,6.46,131.25,6.46z M130.6,4.99V4.82
		c0.05-0.05,0.77-0.97,0.7,0.73C130.87,5.31,130.6,4.99,130.6,4.99z"/>
	<path class="st0" d="M50.29,26.33h0.17c0.02,0,0.04,0,0.07,0c0.02,0-0.7,0-0.68,0h0.23c-0.04,0-0.07,0.02-0.11,0.02
		c-4.15,0.26-6.36,3.29-7.36,5.13v-3.31V16.72h-9.99v18.73v33.7v8.78h9.99v-3.98v-1.19c1.13,1.74,3.8,5.04,7.55,5.12
		c0.01,0,0.01,0,0.02,0h0.05c0.02,0,0.04,0,0.07,0c0.02,0,0.04,0,0.06,0h-0.06c4.96,0,9.01-4.05,9.01-9.01V35.34
		C59.3,30.39,55.25,26.33,50.29,26.33z M49.32,67.34c0,1.97-1.68,3.54-3.68,3.37c-1.74-0.15-3.03-1.71-3.03-3.45V38.89
		c0-1.76,1.27-3.33,3.02-3.52c2-0.21,3.69,1.35,3.69,3.31V67.34z"/>
	<polygon class="st0" points="173.39,52.91 167.6,26.45 157.19,26.45 168.45,77.93 178.24,77.93 189.24,26.45 179.22,26.45 	"/>
	<path class="st0" d="M241.17,26.33c0.02,0,0.05,0,0.07,0c0.06,0,0.1,0,0.1,0H241.17z"/>
	<path class="st0" d="M241.24,26.33c-0.14,0.01-0.37,0.01-0.4,0.02c-4.15,0.26-6.36,3.29-7.36,5.13v-3.31v-1.84h-9.99v9.12v9.89
		v23.82v8.78h9.99v-3.98v-1.19v-5.37V45.34v-6.6c0-1.87,1.51-3.38,3.38-3.38c1.84,0,3.33,1.49,3.33,3.33v12.16h9.99V35.34
		C250.18,30.41,246.16,26.37,241.24,26.33z"/>
	<path class="st0" d="M145.8,26.33c-0.14,0.01-0.37,0.01-0.4,0.02c-4.15,0.26-6.36,3.29-7.36,5.13v-3.31v-1.84h-9.99v9.12v9.89
		v23.82v8.78h9.99v-3.98v-1.19v-5.37V45.34v-6.6c0-1.87,1.51-3.38,3.38-3.38c1.84,0,3.33,1.49,3.33,3.33v12.16h9.99V35.34
		C154.74,30.41,150.73,26.37,145.8,26.33z"/>
	<path class="st0" d="M145.73,26.33c0.02,0,0.05,0,0.07,0c0.06,0,0.1,0,0.1,0H145.73z"/>
	<path class="st0" d="M112.82,26.37l-6.49,0c-5.39,0-9.76,4.37-9.76,9.76v32.04c0,5.39,4.37,9.76,9.76,9.76l6.49,0
		c5.39,0,9.77-4.37,9.77-9.76V58.9h-9.67v10.2c0,1.7-1.2,3.22-2.88,3.46c-1.91,0.27-3.57-1.11-3.79-2.92V50.82h6.67h9.67V36.14
		C122.58,30.75,118.21,26.37,112.82,26.37z M112.9,45.38h-6.67V34.68c0.22-1.8,1.87-3.18,3.79-2.92c1.68,0.23,2.88,1.76,2.88,3.46
		V45.38z"/>
	<path class="st0" d="M81.11,26.38h-0.98h-4.59h-0.98c-5.4,0-9.78,4.38-9.78,9.78v5.16c0,2.92,1.29,5.53,3.31,7.32l0,0.03
		l13.09,12.17l0.01,0.01v5.98v2.45c0,1.85-1.51,3.36-3.36,3.36c-1.85,0-3.36-1.51-3.36-3.36v-2.45v-7.87h-9.69v9.22
		c0,5.4,4.38,9.78,9.78,9.78h0.98h4.59h0.98c5.4,0,9.78-4.38,9.78-9.78V63c0-2.92-1.29-5.53-3.31-7.32l0-0.03L74.48,43.49l-0.01,0
		v-5.98v-2.45c0-1.85,1.51-3.36,3.36-3.36c1.85,0,3.36,1.51,3.36,3.36v2.45v7.87h9.69v-9.22C90.89,30.76,86.51,26.38,81.11,26.38z"
		/>
	<path class="st0" d="M208.18,26.37l-6.49,0c-5.39,0-9.76,4.37-9.76,9.76v32.04c0,5.39,4.37,9.76,9.76,9.76l6.49,0
		c5.39,0,9.77-4.37,9.77-9.76V58.9h-9.67v10.2c0,1.7-1.2,3.22-2.88,3.46c-1.91,0.27-3.57-1.11-3.79-2.92V50.82h6.67h9.67V36.14
		C217.94,30.75,213.57,26.37,208.18,26.37z M208.27,45.38h-6.67V34.68c0.22-1.8,1.87-3.18,3.79-2.92c1.68,0.23,2.88,1.76,2.88,3.46
		V45.38z"/>
</g>
</svg>
