<?xml version="1.0" encoding="UTF-8"?>
<svg id="Layer_2" data-name="Layer 2" xmlns="http://www.w3.org/2000/svg" xmlns:xlink="http://www.w3.org/1999/xlink" viewBox="0 0 446.41 134.42">
  <defs>
    <style>
      .cls-1 {
        fill: #222223;
      }

      .cls-1, .cls-2, .cls-3, .cls-4, .cls-5 {
        stroke-width: 0px;
      }

      .cls-6 {
        clip-path: url(#clippath);
      }

      .cls-2 {
        fill: none;
      }

      .cls-3 {
        fill: url(#radial-gradient);
      }

      .cls-7 {
        clip-path: url(#clippath-1);
      }

      .cls-4 {
        fill: url(#radial-gradient-2);
      }

      .cls-5 {
        fill: #97999a;
      }
    </style>
    <clipPath id="clippath">
      <path class="cls-2" d="M268.9,11.63c0,6.27,5.2,11.48,11.48,11.48s11.63-5.2,11.63-11.48-5.2-11.63-11.63-11.63-11.48,5.2-11.48,11.63Z"/>
    </clipPath>
    <radialGradient id="radial-gradient" cx="233.66" cy="-400.75" fx="233.66" fy="-400.75" r="3.11" gradientTransform="translate(-1455.88 -1005.96) rotate(90) scale(4.33)" gradientUnits="userSpaceOnUse">
      <stop offset="0" stop-color="#3ec1f0"/>
      <stop offset=".5" stop-color="#169fda"/>
      <stop offset="1" stop-color="#1c8dcd"/>
    </radialGradient>
    <clipPath id="clippath-1">
      <path class="cls-2" d="M0,122.94c0,6.27,5.2,11.48,11.48,11.48s11.63-5.2,11.63-11.48-5.2-11.63-11.63-11.63S0,116.51,0,122.94Z"/>
    </clipPath>
    <radialGradient id="radial-gradient-2" cx="226.23" cy="-355.76" fx="226.23" fy="-355.76" r="3.11" gradientTransform="translate(-1529.98 -862.48) rotate(90) scale(4.33)" xlink:href="#radial-gradient"/>
  </defs>
  <g id="Layer_1-2" data-name="Layer 1">
    <path class="cls-1" d="M100.15,59.68v40.41h-14.77v-39.2c0-10.2-6.04-16.92-16.25-16.92s-16.78,6.71-16.78,16.92v39.2h-14.77V32.96h12.89v8.73c4.7-6.18,12.09-10.34,21.89-10.34,16.92,0,27.79,11.68,27.79,28.33"/>
    <path class="cls-1" d="M134.79,31.08v1.88h20.01v11.41h-20.01v55.72h-14.5v-55.72h-11.41v-11.41h11.41v-1.88c0-17.32,12.62-24.84,25.11-24.84,4.57,0,9.67.94,13.29,3.09l.54,1.07-3.49,9.13-1.21.67c-2.55-1.61-5.24-2.15-7.79-2.15-6.45,0-11.95,3.89-11.95,13.02"/>
    <path class="cls-1" d="M156.27,66.53c0-20,15.44-35.18,36.25-35.18s36.39,15.17,36.39,35.18-15.44,35.18-36.39,35.18-36.25-15.17-36.25-35.18M214.27,66.53c0-12.89-8.99-22.42-21.75-22.42s-21.62,9.53-21.62,22.42,8.99,22.42,21.62,22.42,21.75-9.53,21.75-22.42"/>
    <polygon class="cls-5" points="241.12 10.14 254.55 8.52 255.62 9.33 255.62 100.09 241.12 100.09 241.12 10.14"/>
    <path class="cls-5" d="M269.99,11.48c0-5.5,4.57-10.07,10.07-10.07s10.21,4.57,10.21,10.07-4.57,10.2-10.21,10.2-10.07-4.56-10.07-10.2M272.81,32.96h14.5v98.98h-14.5V32.96Z"/>
    <rect class="cls-1" x="4.68" y="1.11" width="14.5" height="98.98"/>
    <path class="cls-5" d="M366.79,59.68v40.41h-14.77v-39.2c0-10.2-6.04-16.92-16.25-16.92s-16.78,6.71-16.78,16.92v39.2h-14.77V32.96h12.89v8.73c4.7-6.18,12.09-10.34,21.89-10.34,16.92,0,27.79,11.68,27.79,28.33"/>
    <path class="cls-5" d="M392.43,70.16c1.07,13.02,11.01,19.87,22.02,19.87,7.39,0,15.98-2.95,20.95-8.86h1.21l7.39,6.71v1.07c-7.12,8.99-19.6,12.75-29.94,12.75-19.47,0-36.12-13.29-36.12-35.04,0-20.27,14.63-35.31,34.64-35.31,9.67,0,17.86,3.36,23.9,9.26,6.18,6.04,9.93,14.77,9.93,24.84,0,1.88-.13,3.49-.4,4.7h-53.58ZM392.57,60.08h39.34c-.67-4.83-2.55-8.86-5.37-11.68-3.49-3.63-8.33-5.64-14.23-5.64-10.61,0-18.13,6.71-19.74,17.32"/>
    <g class="cls-6">
      <rect class="cls-3" x="264.54" y="-4.39" width="31.82" height="31.82" transform="translate(36.2 149.81) rotate(-31.87)"/>
    </g>
    <g class="cls-7">
      <rect class="cls-4" x="-4.35" y="106.92" width="31.83" height="31.83" transform="translate(-63.11 24.62) rotate(-31.87)"/>
    </g>
    <g>
      <path class="cls-1" d="M52.73,115.56h8.12v1.13h-6.88v4.73h6.45v1.13h-6.45v5.18h7.18v1.13h-8.42v-13.3Z"/>
      <path class="cls-1" d="M63.17,122.61c0-.16,0-.36-.02-.59-.01-.23-.02-.47-.03-.7,0-.24-.02-.46-.03-.66-.01-.21-.02-.37-.02-.48h1.13c.01.32.02.64.03.94,0,.3.02.49.05.58h.06c.23-.48.6-.88,1.13-1.23.53-.34,1.14-.52,1.84-.52.58,0,1.1.15,1.58.44.47.29.82.77,1.03,1.43.27-.65.68-1.13,1.23-1.43.54-.3,1.12-.45,1.72-.45.68,0,1.23.11,1.65.32.42.21.76.49,1,.83.25.34.41.74.51,1.19.09.45.14.91.14,1.39v5.16h-1.12v-5.1c0-.35-.03-.69-.09-1.02s-.17-.63-.33-.89-.37-.47-.66-.63-.65-.23-1.1-.23c-.52,0-.96.1-1.29.29-.34.19-.6.44-.8.74-.19.3-.33.62-.41.98-.08.35-.12.68-.12.99v4.88h-1.13v-5.21c0-.8-.15-1.44-.44-1.93s-.75-.73-1.36-.73c-.41,0-.8.07-1.17.22-.37.14-.69.36-.96.66-.27.29-.48.66-.64,1.11-.16.44-.23.97-.23,1.57v4.33h-1.13v-6.23l-.02-.02Z"/>
      <path class="cls-1" d="M78.55,120.18h1.13v1.52h.04c.18-.3.39-.56.66-.78.26-.22.55-.4.85-.54.3-.14.63-.25.96-.32.34-.07.67-.1.99-.1.66,0,1.27.11,1.83.34.56.22,1.04.54,1.44.95s.72.89.95,1.44c.23.56.34,1.17.34,1.83s-.11,1.27-.34,1.83c-.22.56-.54,1.04-.95,1.44s-.89.72-1.44.95c-.56.22-1.17.34-1.83.34-.33,0-.66-.03-.99-.1-.34-.07-.66-.18-.96-.32-.31-.14-.59-.33-.85-.54-.26-.22-.48-.48-.66-.78h-.04v5.8h-1.13v-12.96ZM79.56,124.51c0,.49.09.95.28,1.38s.44.81.77,1.13.71.57,1.14.76c.44.19.91.28,1.43.28s1-.1,1.43-.28c.43-.19.79-.44,1.09-.76s.53-.69.69-1.13c.16-.43.23-.89.23-1.38s-.08-.95-.23-1.38c-.16-.43-.38-.81-.69-1.13-.3-.32-.66-.57-1.09-.76s-.9-.28-1.43-.28-.99.09-1.43.28-.82.44-1.14.76-.58.69-.77,1.13c-.19.43-.28.89-.28,1.38Z"/>
      <path class="cls-1" d="M89.39,124.51c0-.66.11-1.27.34-1.83s.54-1.04.94-1.44c.4-.41.88-.72,1.44-.95s1.18-.34,1.84-.34,1.27.11,1.83.34c.56.22,1.04.54,1.44.95.41.41.72.89.95,1.44.23.56.34,1.17.34,1.83s-.11,1.27-.34,1.83c-.22.56-.54,1.04-.95,1.44-.41.41-.89.72-1.44.95-.56.22-1.17.34-1.83.34s-1.28-.11-1.84-.34-1.04-.54-1.44-.95-.71-.89-.94-1.44c-.22-.56-.34-1.17-.34-1.83ZM90.52,124.51c0,.49.08.95.23,1.38.15.43.38.81.68,1.13s.66.57,1.09.76c.42.19.9.28,1.42.28s1-.1,1.43-.28c.43-.19.79-.44,1.09-.76s.53-.69.68-1.13c.16-.43.23-.89.23-1.38s-.08-.95-.23-1.38-.38-.81-.68-1.13-.66-.57-1.09-.76-.9-.28-1.43-.28-1,.09-1.42.28c-.43.19-.79.44-1.09.76s-.53.69-.68,1.13c-.16.43-.23.89-.23,1.38Z"/>
      <path class="cls-1" d="M99.44,120.18h1.24l2.1,7.26h.04l2.42-7.26h1.07l2.57,7.26h.04l2.04-7.26h1.13l-2.55,8.66h-1.16l-2.59-7.09h-.04l-2.42,7.09h-1.16l-2.72-8.66h-.01Z"/>
      <path class="cls-1" d="M121.14,127.21c-.44.66-.98,1.14-1.62,1.42-.65.29-1.35.43-2.13.43-.66,0-1.26-.11-1.8-.34-.54-.23-1-.54-1.39-.95s-.68-.89-.89-1.44c-.21-.56-.31-1.17-.31-1.85s.11-1.25.32-1.8c.21-.55.51-1.03.9-1.44.39-.41.84-.72,1.37-.96.53-.23,1.11-.35,1.74-.35s1.25.12,1.75.35c.51.23.93.54,1.28.92.34.38.6.81.78,1.3s.26.98.26,1.48v.79h-7.28c0,.24.05.54.14.91.1.37.27.73.52,1.08.25.35.58.65,1,.9s.96.38,1.62.38c.58,0,1.13-.14,1.67-.41s.95-.65,1.24-1.13l.82.69v.02ZM120.28,123.78c0-.39-.08-.75-.23-1.09-.16-.34-.37-.63-.64-.89-.27-.26-.59-.46-.96-.61s-.76-.22-1.17-.22c-.61,0-1.12.12-1.53.37s-.73.54-.97.86c-.24.33-.41.64-.51.95s-.15.52-.15.63h6.16Z"/>
      <path class="cls-1" d="M123.54,122.61c0-.16,0-.36-.02-.59-.01-.23-.02-.47-.03-.7,0-.24-.01-.46-.03-.66-.01-.21-.02-.37-.02-.48h1.13c.01.32.02.64.03.94s.02.49.05.58c.29-.51.66-.93,1.11-1.26.45-.33,1-.49,1.65-.49.11,0,.22.01.33.03s.22.04.33.07l-.13,1.11c-.15-.05-.29-.08-.43-.08-.49,0-.91.08-1.26.23-.36.16-.65.37-.88.65s-.4.6-.52.97c-.11.37-.17.77-.17,1.19v4.73h-1.13v-6.23h0Z"/>
      <path class="cls-1" d="M129.34,116.74c0-.24.08-.44.24-.6s.36-.24.6-.24.44.08.6.24.24.36.24.6-.08.44-.24.6-.36.24-.6.24-.44-.08-.6-.24-.24-.36-.24-.6ZM129.62,120.18h1.13v8.66h-1.13v-8.66Z"/>
      <path class="cls-1" d="M133.57,122.61c0-.16,0-.36-.02-.59-.01-.23-.02-.47-.03-.7,0-.24-.01-.46-.03-.66-.01-.21-.02-.37-.02-.48h1.13c.01.32.02.64.03.94s.02.49.05.58h.06c.22-.48.6-.88,1.13-1.23.52-.34,1.14-.52,1.84-.52s1.22.11,1.65.32c.43.21.76.49,1,.83s.41.74.51,1.19c.09.45.14.91.14,1.39v5.16h-1.13v-5.1c0-.35-.03-.69-.1-1.02-.06-.33-.17-.63-.33-.89-.16-.26-.37-.47-.66-.63s-.65-.23-1.1-.23c-.41,0-.8.07-1.17.22-.37.14-.69.36-.96.66-.27.29-.48.66-.64,1.11-.16.44-.23.97-.23,1.57v4.33h-1.13v-6.25Z"/>
      <path class="cls-1" d="M152.33,128.28c0,1.07-.15,1.94-.47,2.61-.31.66-.7,1.18-1.17,1.54-.47.36-.97.6-1.51.73-.54.12-1.03.19-1.46.19s-.87-.04-1.28-.12c-.42-.08-.82-.2-1.19-.36s-.72-.35-1.02-.57c-.31-.22-.57-.48-.8-.77l.88-.82c.4.56.9.98,1.5,1.24.6.26,1.24.39,1.91.39.58,0,1.06-.07,1.45-.22.4-.15.72-.35.98-.59.26-.25.45-.51.6-.81s.25-.59.32-.88.11-.57.12-.84c.01-.26.02-.48.02-.64v-1.2h-.04c-.33.52-.77.94-1.32,1.24s-1.21.45-1.96.45c-.64,0-1.24-.12-1.8-.35s-1.05-.55-1.47-.96-.75-.88-.99-1.42-.37-1.11-.37-1.72.12-1.19.37-1.73c.24-.54.58-1.01.99-1.41s.91-.72,1.47-.96,1.16-.36,1.8-.36c.75,0,1.4.15,1.96.45s1,.71,1.32,1.24h.04v-1.46h1.13v8.1h-.01ZM151.24,124.4c0-.48-.09-.92-.27-1.34-.18-.42-.43-.78-.73-1.09-.31-.3-.67-.55-1.09-.73-.42-.18-.87-.27-1.34-.27s-.92.09-1.34.27c-.42.18-.78.43-1.09.73-.31.31-.55.67-.73,1.09-.18.42-.27.87-.27,1.34s.09.92.27,1.34c.18.42.42.78.73,1.09s.67.55,1.09.73c.42.18.87.27,1.34.27s.92-.09,1.34-.27c.42-.18.78-.43,1.09-.73.31-.31.55-.67.73-1.09.18-.42.27-.87.27-1.34Z"/>
      <path class="cls-1" d="M159.55,115.56h3.83c.5,0,1.01.04,1.52.12.51.08.97.25,1.38.51s.74.61.99,1.07c.26.46.38,1.06.38,1.81,0,.68-.2,1.26-.6,1.76s-.99.83-1.78.99v.04c.44.04.84.14,1.2.31.36.17.67.39.94.67s.47.62.61,1c.14.39.22.81.22,1.28,0,.76-.15,1.39-.44,1.87-.29.48-.66.86-1.11,1.13s-.93.46-1.44.56c-.52.1-1,.15-1.45.15h-4.24v-13.28h0ZM160.79,121.3h2.57c.64,0,1.16-.08,1.56-.23s.71-.35.94-.57.38-.47.45-.72c.08-.26.11-.49.11-.7,0-.46-.08-.85-.23-1.15s-.36-.55-.63-.73c-.26-.18-.57-.31-.92-.38-.35-.08-.72-.11-1.11-.11h-2.74v4.62-.03ZM160.79,127.72h2.83c.73,0,1.31-.09,1.75-.26s.78-.39,1.02-.66c.24-.26.4-.54.48-.84.08-.29.12-.56.12-.8,0-.49-.09-.91-.28-1.26s-.43-.63-.73-.85c-.3-.22-.64-.38-1.02-.48-.38-.1-.77-.15-1.15-.15h-3.02v5.29h0Z"/>
      <path class="cls-1" d="M178.02,126.4c0,.16,0,.36.02.59.01.23.02.47.03.7s.02.46.03.67c.01.21.02.37.02.48h-1.13c-.01-.33-.02-.64-.03-.94s-.02-.49-.05-.58h-.06c-.22.48-.6.88-1.13,1.23-.52.34-1.14.51-1.84.51s-1.23-.11-1.66-.32c-.43-.21-.77-.49-1.01-.84-.24-.34-.41-.74-.5-1.19s-.13-.91-.13-1.39v-5.16h1.13v5.1c0,.35.03.69.09,1.02s.17.63.33.89c.15.26.37.47.66.63s.65.23,1.1.23c.41,0,.8-.07,1.17-.22.37-.14.69-.36.96-.66s.48-.66.64-1.11c.16-.44.23-.96.23-1.57v-4.33h1.13v6.26Z"/>
      <path class="cls-1" d="M180.78,126.63c.24.46.59.81,1.05,1.06.46.24.95.37,1.46.37.24,0,.48-.04.71-.11.24-.07.45-.18.64-.32s.34-.3.46-.5c.12-.19.18-.42.18-.67,0-.4-.13-.7-.38-.9-.26-.2-.57-.36-.95-.47-.38-.11-.79-.21-1.24-.29-.45-.08-.86-.21-1.24-.37-.37-.17-.69-.4-.95-.7-.26-.3-.38-.72-.38-1.28,0-.42.09-.79.26-1.11.18-.31.4-.57.69-.78.28-.21.6-.36.95-.46s.71-.15,1.07-.15c.71,0,1.33.13,1.85.39.52.26.92.68,1.21,1.24l-1.01.6c-.21-.4-.48-.7-.8-.91-.32-.21-.73-.31-1.25-.31-.2,0-.41.03-.63.09s-.42.15-.59.26c-.18.11-.32.26-.44.43-.12.18-.18.38-.18.6,0,.39.13.67.38.86.26.19.57.33.95.44.38.11.79.2,1.24.27.45.07.86.2,1.24.37.37.17.69.41.95.73s.38.77.38,1.36c0,.45-.08.84-.25,1.17-.17.33-.4.61-.7.83-.29.23-.63.39-1,.51-.37.11-.77.17-1.18.17-.75,0-1.43-.14-2.05-.43-.62-.29-1.1-.73-1.44-1.33l.99-.67h0Z"/>
      <path class="cls-1" d="M188.3,116.74c0-.24.08-.44.24-.6s.36-.24.6-.24.44.08.6.24.24.36.24.6-.08.44-.24.6-.36.24-.6.24-.44-.08-.6-.24-.24-.36-.24-.6ZM188.58,120.18h1.13v8.66h-1.13v-8.66Z"/>
      <path class="cls-1" d="M192.54,122.61c0-.16,0-.36-.02-.59-.01-.23-.02-.47-.03-.7,0-.24-.01-.46-.03-.66-.01-.21-.02-.37-.02-.48h1.13c.01.32.02.64.03.94s.02.49.05.58h.06c.22-.48.6-.88,1.13-1.23.52-.34,1.14-.52,1.84-.52s1.22.11,1.65.32c.43.21.76.49,1,.83s.41.74.51,1.19c.09.45.14.91.14,1.39v5.16h-1.13v-5.1c0-.35-.03-.69-.1-1.02-.06-.33-.17-.63-.33-.89s-.37-.47-.66-.63-.65-.23-1.1-.23c-.41,0-.8.07-1.17.22-.37.14-.69.36-.96.66-.27.29-.48.66-.64,1.11-.16.44-.23.97-.23,1.57v4.33h-1.13v-6.25Z"/>
      <path class="cls-1" d="M210.24,127.21c-.44.66-.98,1.14-1.62,1.42-.65.29-1.35.43-2.13.43-.66,0-1.26-.11-1.8-.34-.54-.23-1-.54-1.39-.95s-.68-.89-.89-1.44c-.21-.56-.31-1.17-.31-1.85s.11-1.25.32-1.8c.21-.55.51-1.03.9-1.44.39-.41.84-.72,1.37-.96.53-.23,1.11-.35,1.74-.35s1.25.12,1.75.35c.51.23.93.54,1.28.92.34.38.6.81.78,1.3s.26.98.26,1.48v.79h-7.28c0,.24.05.54.14.91.1.37.27.73.52,1.08.25.35.58.65,1,.9s.96.38,1.62.38c.58,0,1.13-.14,1.67-.41s.95-.65,1.24-1.13l.82.69v.02ZM209.38,123.78c0-.39-.08-.75-.23-1.09-.16-.34-.37-.63-.64-.89-.27-.26-.59-.46-.96-.61s-.76-.22-1.17-.22c-.61,0-1.12.12-1.53.37s-.73.54-.97.86c-.24.33-.41.64-.51.95s-.15.52-.15.63h6.16Z"/>
      <path class="cls-1" d="M212.68,126.63c.24.46.59.81,1.05,1.06.46.24.95.37,1.46.37.24,0,.48-.04.71-.11.24-.07.45-.18.64-.32s.34-.3.46-.5c.12-.19.18-.42.18-.67,0-.4-.13-.7-.38-.9-.26-.2-.57-.36-.95-.47-.38-.11-.79-.21-1.24-.29-.45-.08-.86-.21-1.24-.37-.37-.17-.69-.4-.95-.7-.26-.3-.38-.72-.38-1.28,0-.42.09-.79.26-1.11.18-.31.4-.57.69-.78.28-.21.6-.36.95-.46s.71-.15,1.07-.15c.71,0,1.33.13,1.85.39.52.26.92.68,1.21,1.24l-1.01.6c-.21-.4-.48-.7-.8-.91-.32-.21-.73-.31-1.25-.31-.2,0-.41.03-.63.09s-.42.15-.59.26c-.18.11-.32.26-.44.43-.12.18-.18.38-.18.6,0,.39.13.67.38.86.26.19.57.33.95.44.38.11.79.2,1.24.27.45.07.86.2,1.24.37.37.17.69.41.95.73s.38.77.38,1.36c0,.45-.08.84-.25,1.17-.17.33-.4.61-.7.83-.29.23-.63.39-1,.51-.37.11-.77.17-1.18.17-.75,0-1.43-.14-2.05-.43-.62-.29-1.1-.73-1.44-1.33l.99-.67h0Z"/>
      <path class="cls-1" d="M220.31,126.63c.24.46.59.81,1.05,1.06.46.24.95.37,1.46.37.24,0,.48-.04.71-.11.24-.07.45-.18.64-.32s.34-.3.46-.5c.12-.19.18-.42.18-.67,0-.4-.13-.7-.38-.9-.26-.2-.57-.36-.95-.47-.38-.11-.79-.21-1.24-.29-.45-.08-.86-.21-1.24-.37-.37-.17-.69-.4-.95-.7-.26-.3-.38-.72-.38-1.28,0-.42.09-.79.26-1.11.18-.31.4-.57.69-.78.28-.21.6-.36.95-.46s.71-.15,1.07-.15c.71,0,1.33.13,1.85.39.52.26.92.68,1.21,1.24l-1.01.6c-.21-.4-.48-.7-.8-.91-.32-.21-.73-.31-1.25-.31-.2,0-.41.03-.63.09s-.42.15-.59.26c-.18.11-.32.26-.44.43-.12.18-.18.38-.18.6,0,.39.13.67.38.86.26.19.57.33.95.44.38.11.79.2,1.24.27.45.07.86.2,1.24.37.37.17.69.41.95.73s.38.77.38,1.36c0,.45-.08.84-.25,1.17-.17.33-.4.61-.7.83-.29.23-.63.39-1,.51-.37.11-.77.17-1.18.17-.75,0-1.43-.14-2.05-.43-.62-.29-1.1-.73-1.44-1.33l.99-.67h0Z"/>
      <path class="cls-1" d="M235.58,127.21c-.44.66-.98,1.14-1.62,1.42-.65.29-1.35.43-2.13.43-.66,0-1.26-.11-1.8-.34-.54-.23-1-.54-1.39-.95s-.68-.89-.89-1.44c-.21-.56-.31-1.17-.31-1.85s.11-1.25.32-1.8c.21-.55.51-1.03.9-1.44.39-.41.84-.72,1.37-.96.53-.23,1.11-.35,1.74-.35s1.25.12,1.75.35c.51.23.93.54,1.28.92.34.38.6.81.78,1.3s.26.98.26,1.48v.79h-7.28c0,.24.05.54.14.91.1.37.27.73.52,1.08.25.35.58.65,1,.9s.96.38,1.62.38c.58,0,1.13-.14,1.67-.41s.95-.65,1.24-1.13l.82.69v.02ZM234.71,123.78c0-.39-.08-.75-.23-1.09-.16-.34-.37-.63-.64-.89-.27-.26-.59-.46-.96-.61s-.76-.22-1.17-.22c-.61,0-1.12.12-1.53.37s-.73.54-.97.86c-.24.33-.41.64-.51.95s-.15.52-.15.63h6.16Z"/>
      <path class="cls-1" d="M238.01,126.63c.24.46.59.81,1.05,1.06.46.24.95.37,1.46.37.24,0,.48-.04.71-.11.24-.07.45-.18.64-.32s.34-.3.46-.5c.12-.19.18-.42.18-.67,0-.4-.13-.7-.38-.9-.26-.2-.57-.36-.95-.47-.38-.11-.79-.21-1.24-.29-.45-.08-.86-.21-1.24-.37-.37-.17-.69-.4-.95-.7-.26-.3-.38-.72-.38-1.28,0-.42.09-.79.26-1.11.18-.31.4-.57.69-.78.28-.21.6-.36.95-.46s.71-.15,1.07-.15c.71,0,1.33.13,1.85.39.52.26.92.68,1.21,1.24l-1.01.6c-.21-.4-.48-.7-.8-.91-.32-.21-.73-.31-1.25-.31-.2,0-.41.03-.63.09s-.42.15-.59.26c-.18.11-.32.26-.44.43-.12.18-.18.38-.18.6,0,.39.13.67.38.86.26.19.57.33.95.44.38.11.79.2,1.24.27.45.07.86.2,1.24.37.37.17.69.41.95.73s.38.77.38,1.36c0,.45-.08.84-.25,1.17-.17.33-.4.61-.7.83-.29.23-.63.39-1,.51-.37.11-.77.17-1.18.17-.75,0-1.43-.14-2.05-.43-.62-.29-1.1-.73-1.44-1.33l.99-.67h0Z"/>
    </g>
  </g>
</svg>